<?xml version="1.0" encoding="UTF-8" standalone="no"?>
<!-- Generator: Adobe Illustrator 16.0.0, SVG Export Plug-In . SVG Version: 6.00 Build 0)  -->

<svg
   xmlns:dc="http://purl.org/dc/elements/1.1/"
   xmlns:cc="http://creativecommons.org/ns#"
   xmlns:rdf="http://www.w3.org/1999/02/22-rdf-syntax-ns#"
   xmlns:svg="http://www.w3.org/2000/svg"
   xmlns="http://www.w3.org/2000/svg"
   xmlns:xlink="http://www.w3.org/1999/xlink"
   xmlns:sodipodi="http://sodipodi.sourceforge.net/DTD/sodipodi-0.dtd"
   xmlns:inkscape="http://www.inkscape.org/namespaces/inkscape"
   version="1.1"
   id="Layer_1"
   x="0px"
   y="0px"
   width="96px"
   height="96px"
   viewBox="0 0 96 96"
   enable-background="new 0 0 96 96"
   xml:space="preserve"
   inkscape:version="0.91 r13725"
   sodipodi:docname="greenleaf.svg"><metadata
     id="metadata45"><rdf:RDF><cc:Work
         rdf:about=""><dc:format>image/svg+xml</dc:format><dc:type
           rdf:resource="http://purl.org/dc/dcmitype/StillImage" /></cc:Work></rdf:RDF></metadata><defs
     id="defs43" /><sodipodi:namedview
     pagecolor="#ffffff"
     bordercolor="#666666"
     borderopacity="1"
     objecttolerance="10"
     gridtolerance="10"
     guidetolerance="10"
     inkscape:pageopacity="0"
     inkscape:pageshadow="2"
     inkscape:window-width="640"
     inkscape:window-height="480"
     id="namedview41"
     showgrid="false"
     inkscape:zoom="2.4583333"
     inkscape:cx="48"
     inkscape:cy="48"
     inkscape:window-x="0"
     inkscape:window-y="0"
     inkscape:window-maximized="0"
     inkscape:current-layer="Layer_1" /><rect
     width="96"
     height="96"
     id="rect3"
     x="-102.10169"
     y="55.322037"
     style="fill:#f7f7f7" /><g
     id="g5"><defs
       id="defs7"><rect
         id="SVGID_1_"
         width="96"
         height="96" /></defs><clipPath
       id="SVGID_2_"><use
         xlink:href="#SVGID_1_"
         overflow="visible"
         id="use11" /></clipPath></g><g
     id="g13"
     transform="translate(0.40677949,0.81355936)"><defs
       id="defs15"><rect
         id="SVGID_3_"
         width="96"
         height="96"
         x="0"
         y="0" /></defs><clipPath
       id="SVGID_4_"><use
         xlink:href="#SVGID_3_"
         overflow="visible"
         id="use19"
         style="overflow:visible"
         x="0"
         y="0"
         width="100%"
         height="100%" /></clipPath><path
       clip-path="url(#SVGID_4_)"
       d="m 23.071,72 0,0 C 19.166,68.095 12.834,68.095 8.929,72 l -4.358,4.358 c -3.905,3.904 -3.905,10.236 0,14.142 3.905,3.905 10.237,3.905 14.142,0 l 4.358,-4.358 c 3.905,-3.905 3.905,-10.237 0,-14.142"
       id="path21"
       inkscape:connector-curvature="0"
       style="fill:#32aa77" /><path
       clip-path="url(#SVGID_4_)"
       d="m 11.642,95.43 c -3.205,0 -6.219,-1.249 -8.485,-3.516 -4.679,-4.679 -4.679,-12.292 0,-16.971 l 4.358,-4.357 c 4.678,-4.68 12.292,-4.68 16.97,0 4.679,4.679 4.679,12.292 0,16.971 l -4.358,4.357 c -2.266,2.267 -5.279,3.516 -8.485,3.516 M 16,71.075 c -2.049,0 -4.097,0.779 -5.657,2.339 l -4.358,4.357 c -3.119,3.119 -3.119,8.195 0,11.314 1.512,1.511 3.52,2.344 5.657,2.344 2.137,0 4.146,-0.833 5.657,-2.344 l 4.358,-4.357 c 3.119,-3.119 3.119,-8.195 0,-11.314 C 20.098,71.854 18.049,71.075 16,71.075"
       id="path23"
       inkscape:connector-curvature="0"
       style="fill:#2d4d68" /><path
       clip-path="url(#SVGID_4_)"
       d="M 48,2 C 22.595,2 2,22.595 2,48 2,73.405 22.595,94 48,94 73.405,94 94,73.405 94,48 L 94,2 48,2 Z"
       id="path25"
       inkscape:connector-curvature="0"
       style="fill:#32aa77" /><path
       clip-path="url(#SVGID_4_)"
       d="M 48,96 C 21.533,96 0,74.467 0,48 0,21.533 21.533,0 48,0 l 46,0 c 1.104,0 2,0.896 2,2 l 0,46 C 96,74.467 74.467,96 48,96 M 48,4 C 23.738,4 4,23.738 4,48 4,72.262 23.738,92 48,92 72.262,92 92,72.262 92,48 L 92,4 48,4 Z"
       id="path27"
       inkscape:connector-curvature="0"
       style="fill:#2d4d68" /><path
       clip-path="url(#SVGID_4_)"
       d="M 15.001,80.048 C 23.36,88.653 35.056,94 48,94 73.405,94 94,73.405 94,48 L 94,2 C 94,2 25.024,70.024 15.001,80.048"
       id="path29"
       inkscape:connector-curvature="0"
       style="fill:#83ef60" /><path
       clip-path="url(#SVGID_4_)"
       d="M 48,96 C 34.914,96 22.685,90.83 13.566,81.441 12.804,80.657 12.814,79.406 13.587,78.633 23.5,68.72 91.905,1.256 92.596,0.576 93.17,0.01 94.028,-0.155 94.773,0.155 95.516,0.466 96,1.193 96,2 l 0,46 C 96,74.467 74.468,96 48,96 M 17.841,80.04 C 26.031,87.768 36.666,92 48,92 72.262,92 92,72.262 92,48 L 92,6.782 C 78.604,19.996 29.723,68.217 17.841,80.04"
       id="path31"
       inkscape:connector-curvature="0"
       style="fill:#2d4d68" /><path
       clip-path="url(#SVGID_4_)"
       d="m 77,44 -23,0 c -1.104,0 -2,-0.896 -2,-2 l 0,-23 c 0,-1.104 0.896,-2 2,-2 1.104,0 2,0.896 2,2 l 0,21 21,0 c 1.104,0 2,0.896 2,2 0,1.104 -0.896,2 -2,2"
       id="path33"
       inkscape:connector-curvature="0"
       style="fill:#2d4d68" /><path
       clip-path="url(#SVGID_4_)"
       d="m 67,66 -35,0 c -1.104,0 -2,-0.896 -2,-2 l 0,-35 c 0,-1.104 0.896,-2 2,-2 1.104,0 2,0.896 2,2 l 0,33 33,0 c 1.104,0 2,0.896 2,2 0,1.104 -0.896,2 -2,2"
       id="path35"
       inkscape:connector-curvature="0"
       style="fill:#2d4d68" /><line
       clip-path="url(#SVGID_4_)"
       x1="15"
       y1="81"
       x2="93"
       y2="3"
       id="line37"
       style="fill:#ffffff" /><path
       clip-path="url(#SVGID_4_)"
       d="m 15,83 c -0.512,0 -1.024,-0.195 -1.414,-0.586 -0.781,-0.781 -0.781,-2.047 0,-2.828 l 78,-78 c 0.78,-0.781 2.048,-0.781 2.828,0 0.781,0.781 0.781,2.047 0,2.828 l -78,78 C 16.024,82.805 15.512,83 15,83"
       id="path39"
       inkscape:connector-curvature="0"
       style="fill:#2d4d68" /></g></svg>